<svg id="visual" viewBox="0 0 1920 1080" width="1920" height="1080" xmlns="http://www.w3.org/2000/svg" xmlns:xlink="http://www.w3.org/1999/xlink" version="1.1"><g stroke-width="1" stroke-linejoin="bevel"><path d="M1009.8 522L1040.8 399L854.2 396Z" fill="#bf740a" stroke="#bf740a"></path><path d="M854.2 396L851.2 502L1009.8 522Z" fill="#b86f05" stroke="#b86f05"></path><path d="M1040.8 399L1040.8 269L854.2 396Z" fill="#f99e2d" stroke="#f99e2d"></path><path d="M1040.8 269L875.2 236L854.2 396Z" fill="#c67910" stroke="#c67910"></path><path d="M875.2 236L744.5 361L854.2 396Z" fill="#b86f05" stroke="#b86f05"></path><path d="M854.2 396L744.5 361L851.2 502Z" fill="#d48419" stroke="#d48419"></path><path d="M1009.8 522L1179.5 393L1040.8 399Z" fill="#d48419" stroke="#d48419"></path><path d="M1040.8 399L1179.5 393L1040.8 269Z" fill="#ea9425" stroke="#ea9425"></path><path d="M744.5 361L726.5 572L851.2 502Z" fill="#b86f05" stroke="#b86f05"></path><path d="M851.2 502L890.2 714L1009.8 522Z" fill="#b16a00" stroke="#b16a00"></path><path d="M1040.8 269L885.2 174L875.2 236Z" fill="#b86f05" stroke="#b86f05"></path><path d="M875.2 236L715.5 247L744.5 361Z" fill="#cd7f15" stroke="#cd7f15"></path><path d="M1060.8 714L1146.5 634L1009.8 522Z" fill="#f99e2d" stroke="#f99e2d"></path><path d="M1009.8 522L1202.5 556L1179.5 393Z" fill="#db891d" stroke="#db891d"></path><path d="M726.5 572L890.2 714L851.2 502Z" fill="#f99e2d" stroke="#f99e2d"></path><path d="M1146.5 634L1202.5 556L1009.8 522Z" fill="#d48419" stroke="#d48419"></path><path d="M890.2 714L1060.8 714L1009.8 522Z" fill="#c67910" stroke="#c67910"></path><path d="M739.5 112L715.5 247L875.2 236Z" fill="#f29929" stroke="#f29929"></path><path d="M744.5 361L600.8 436L726.5 572Z" fill="#b86f05" stroke="#b86f05"></path><path d="M1179.5 393L1178.5 239L1040.8 269Z" fill="#f99e2d" stroke="#f99e2d"></path><path d="M1040.8 269L1011.8 125L885.2 174Z" fill="#c67910" stroke="#c67910"></path><path d="M1306.2 276L1178.5 239L1179.5 393Z" fill="#b86f05" stroke="#b86f05"></path><path d="M1178.5 239L1011.8 125L1040.8 269Z" fill="#e38e21" stroke="#e38e21"></path><path d="M623.8 641L715.5 676L726.5 572Z" fill="#c67910" stroke="#c67910"></path><path d="M726.5 572L715.5 676L890.2 714Z" fill="#bf740a" stroke="#bf740a"></path><path d="M1291.2 514L1287.2 448L1202.5 556Z" fill="#cd7f15" stroke="#cd7f15"></path><path d="M1202.5 556L1287.2 448L1179.5 393Z" fill="#f99e2d" stroke="#f99e2d"></path><path d="M601.8 240L600.8 436L744.5 361Z" fill="#ea9425" stroke="#ea9425"></path><path d="M1335.2 663L1291.2 514L1202.5 556Z" fill="#ea9425" stroke="#ea9425"></path><path d="M1335.2 663L1202.5 556L1146.5 634Z" fill="#bf740a" stroke="#bf740a"></path><path d="M553.8 533L623.8 641L726.5 572Z" fill="#f99e2d" stroke="#f99e2d"></path><path d="M890.2 714L1069.8 807L1060.8 714Z" fill="#ea9425" stroke="#ea9425"></path><path d="M1060.8 714L1184.5 835L1146.5 634Z" fill="#cd7f15" stroke="#cd7f15"></path><path d="M870.2 848L1069.8 807L890.2 714Z" fill="#b16a00" stroke="#b16a00"></path><path d="M885.2 174L739.5 112L875.2 236Z" fill="#d48419" stroke="#d48419"></path><path d="M715.5 247L601.8 240L744.5 361Z" fill="#ea9425" stroke="#ea9425"></path><path d="M849.2 0L739.5 112L885.2 174Z" fill="#ea9425" stroke="#ea9425"></path><path d="M1508.9 438L1306.2 276L1287.2 448Z" fill="#d48419" stroke="#d48419"></path><path d="M1287.2 448L1306.2 276L1179.5 393Z" fill="#f29929" stroke="#f29929"></path><path d="M1178.5 239L1220.5 128L1011.8 125Z" fill="#f99e2d" stroke="#f99e2d"></path><path d="M618.8 94L601.8 240L715.5 247Z" fill="#f29929" stroke="#f29929"></path><path d="M483.1 384L553.8 533L600.8 436Z" fill="#f99e2d" stroke="#f99e2d"></path><path d="M600.8 436L553.8 533L726.5 572Z" fill="#d48419" stroke="#d48419"></path><path d="M732.5 804L890.2 714L715.5 676Z" fill="#c67910" stroke="#c67910"></path><path d="M732.5 804L870.2 848L890.2 714Z" fill="#f29929" stroke="#f29929"></path><path d="M1322.2 177L1220.5 128L1178.5 239Z" fill="#d48419" stroke="#d48419"></path><path d="M1011.8 125L849.2 0L885.2 174Z" fill="#ea9425" stroke="#ea9425"></path><path d="M550.8 797L732.5 804L715.5 676Z" fill="#b86f05" stroke="#b86f05"></path><path d="M1184.5 835L1335.2 663L1146.5 634Z" fill="#ea9425" stroke="#ea9425"></path><path d="M1291.2 514L1508.9 438L1287.2 448Z" fill="#b16a00" stroke="#b16a00"></path><path d="M1062.8 0L849.2 0L1011.8 125Z" fill="#f99e2d" stroke="#f99e2d"></path><path d="M739.5 112L618.8 94L715.5 247Z" fill="#f99e2d" stroke="#f99e2d"></path><path d="M1154.5 0L1062.8 0L1011.8 125Z" fill="#ea9425" stroke="#ea9425"></path><path d="M1306.2 276L1322.2 177L1178.5 239Z" fill="#bf740a" stroke="#bf740a"></path><path d="M1220.5 128L1154.5 0L1011.8 125Z" fill="#d48419" stroke="#d48419"></path><path d="M1516.9 231L1322.2 177L1306.2 276Z" fill="#b86f05" stroke="#b86f05"></path><path d="M1069.8 807L1184.5 835L1060.8 714Z" fill="#f99e2d" stroke="#f99e2d"></path><path d="M1150.5 960L1184.5 835L1069.8 807Z" fill="#b86f05" stroke="#b86f05"></path><path d="M601.8 240L483.1 384L600.8 436Z" fill="#c67910" stroke="#c67910"></path><path d="M719.5 0L618.8 94L739.5 112Z" fill="#cd7f15" stroke="#cd7f15"></path><path d="M601.8 240L440.1 236L483.1 384Z" fill="#db891d" stroke="#db891d"></path><path d="M1321.2 0L1154.5 0L1220.5 128Z" fill="#b86f05" stroke="#b86f05"></path><path d="M849.2 0L719.5 0L739.5 112Z" fill="#b16a00" stroke="#b16a00"></path><path d="M854.2 931L991.8 936L870.2 848Z" fill="#b16a00" stroke="#b16a00"></path><path d="M870.2 848L991.8 936L1069.8 807Z" fill="#b86f05" stroke="#b86f05"></path><path d="M732.5 804L854.2 931L870.2 848Z" fill="#b86f05" stroke="#b86f05"></path><path d="M483.1 384L457.1 552L553.8 533Z" fill="#c67910" stroke="#c67910"></path><path d="M553.8 533L457.1 552L623.8 641Z" fill="#c67910" stroke="#c67910"></path><path d="M623.8 641L550.8 797L715.5 676Z" fill="#ea9425" stroke="#ea9425"></path><path d="M732.5 804L728.5 948L854.2 931Z" fill="#cd7f15" stroke="#cd7f15"></path><path d="M404.1 670L550.8 797L623.8 641Z" fill="#e38e21" stroke="#e38e21"></path><path d="M443.1 110L440.1 236L601.8 240Z" fill="#b16a00" stroke="#b16a00"></path><path d="M483.1 384L316.4 391L457.1 552Z" fill="#db891d" stroke="#db891d"></path><path d="M443.1 110L601.8 240L618.8 94Z" fill="#b16a00" stroke="#b16a00"></path><path d="M1288.2 988L1367.2 795L1184.5 835Z" fill="#cd7f15" stroke="#cd7f15"></path><path d="M1184.5 835L1367.2 795L1335.2 663Z" fill="#db891d" stroke="#db891d"></path><path d="M1516.9 580L1508.9 438L1291.2 514Z" fill="#f29929" stroke="#f29929"></path><path d="M596.8 957L728.5 948L732.5 804Z" fill="#db891d" stroke="#db891d"></path><path d="M854.2 931L915.2 1080L991.8 936Z" fill="#b86f05" stroke="#b86f05"></path><path d="M1053.8 1080L1150.5 960L991.8 936Z" fill="#b16a00" stroke="#b16a00"></path><path d="M991.8 936L1150.5 960L1069.8 807Z" fill="#c67910" stroke="#c67910"></path><path d="M1516.9 580L1291.2 514L1335.2 663Z" fill="#cd7f15" stroke="#cd7f15"></path><path d="M719.5 0L575.8 0L618.8 94Z" fill="#f99e2d" stroke="#f99e2d"></path><path d="M1468.9 128L1321.2 0L1322.2 177Z" fill="#db891d" stroke="#db891d"></path><path d="M1322.2 177L1321.2 0L1220.5 128Z" fill="#f29929" stroke="#f29929"></path><path d="M1502.9 653L1516.9 580L1335.2 663Z" fill="#bf740a" stroke="#bf740a"></path><path d="M335.4 650L404.1 670L457.1 552Z" fill="#f29929" stroke="#f29929"></path><path d="M457.1 552L404.1 670L623.8 641Z" fill="#f29929" stroke="#f29929"></path><path d="M1467.9 779L1502.9 653L1335.2 663Z" fill="#db891d" stroke="#db891d"></path><path d="M575.8 0L443.1 110L618.8 94Z" fill="#bf740a" stroke="#bf740a"></path><path d="M440.1 236L316.4 391L483.1 384Z" fill="#e38e21" stroke="#e38e21"></path><path d="M1631.6 420L1516.9 231L1508.9 438Z" fill="#ea9425" stroke="#ea9425"></path><path d="M1508.9 438L1516.9 231L1306.2 276Z" fill="#b16a00" stroke="#b16a00"></path><path d="M1516.9 231L1468.9 128L1322.2 177Z" fill="#b16a00" stroke="#b16a00"></path><path d="M404.1 670L433.1 775L550.8 797Z" fill="#db891d" stroke="#db891d"></path><path d="M550.8 797L596.8 957L732.5 804Z" fill="#e38e21" stroke="#e38e21"></path><path d="M1516.9 962L1467.9 779L1367.2 795Z" fill="#c67910" stroke="#c67910"></path><path d="M1367.2 795L1467.9 779L1335.2 663Z" fill="#e38e21" stroke="#e38e21"></path><path d="M459.1 978L596.8 957L550.8 797Z" fill="#c67910" stroke="#c67910"></path><path d="M700.5 1080L915.2 1080L854.2 931Z" fill="#db891d" stroke="#db891d"></path><path d="M303.4 273L316.4 391L440.1 236Z" fill="#f29929" stroke="#f29929"></path><path d="M404.1 670L288.4 805L433.1 775Z" fill="#e38e21" stroke="#e38e21"></path><path d="M700.5 1080L854.2 931L728.5 948Z" fill="#b86f05" stroke="#b86f05"></path><path d="M1150.5 960L1288.2 988L1184.5 835Z" fill="#db891d" stroke="#db891d"></path><path d="M1194.5 1080L1288.2 988L1150.5 960Z" fill="#db891d" stroke="#db891d"></path><path d="M316.4 391L312.4 561L457.1 552Z" fill="#ea9425" stroke="#ea9425"></path><path d="M312.4 561L335.4 650L457.1 552Z" fill="#d48419" stroke="#d48419"></path><path d="M915.2 1080L1053.8 1080L991.8 936Z" fill="#cd7f15" stroke="#cd7f15"></path><path d="M575.8 0L471.1 0L443.1 110Z" fill="#cd7f15" stroke="#cd7f15"></path><path d="M267.4 174L303.4 273L440.1 236Z" fill="#f29929" stroke="#f29929"></path><path d="M267.4 174L440.1 236L443.1 110Z" fill="#cd7f15" stroke="#cd7f15"></path><path d="M316.4 391L188.7 399L312.4 561Z" fill="#f99e2d" stroke="#f99e2d"></path><path d="M1651.6 668L1625.6 521L1516.9 580Z" fill="#db891d" stroke="#db891d"></path><path d="M1516.9 580L1625.6 521L1508.9 438Z" fill="#b86f05" stroke="#b86f05"></path><path d="M1651.6 668L1516.9 580L1502.9 653Z" fill="#f29929" stroke="#f29929"></path><path d="M596.8 957L700.5 1080L728.5 948Z" fill="#f29929" stroke="#f29929"></path><path d="M559.8 1080L700.5 1080L596.8 957Z" fill="#d48419" stroke="#d48419"></path><path d="M1625.6 521L1631.6 420L1508.9 438Z" fill="#b86f05" stroke="#b86f05"></path><path d="M1657.6 113L1515.9 0L1468.9 128Z" fill="#b16a00" stroke="#b16a00"></path><path d="M1053.8 1080L1194.5 1080L1150.5 960Z" fill="#bf740a" stroke="#bf740a"></path><path d="M1657.6 113L1468.9 128L1516.9 231Z" fill="#cd7f15" stroke="#cd7f15"></path><path d="M1468.9 128L1515.9 0L1321.2 0Z" fill="#f99e2d" stroke="#f99e2d"></path><path d="M288.4 805L459.1 978L433.1 775Z" fill="#c67910" stroke="#c67910"></path><path d="M433.1 775L459.1 978L550.8 797Z" fill="#e38e21" stroke="#e38e21"></path><path d="M306.4 0L267.4 174L443.1 110Z" fill="#db891d" stroke="#db891d"></path><path d="M303.4 273L188.7 399L316.4 391Z" fill="#f29929" stroke="#f29929"></path><path d="M1467.9 779L1651.6 668L1502.9 653Z" fill="#bf740a" stroke="#bf740a"></path><path d="M1625.6 521L1738.3 540L1631.6 420Z" fill="#b86f05" stroke="#b86f05"></path><path d="M1646.6 839L1651.6 668L1467.9 779Z" fill="#db891d" stroke="#db891d"></path><path d="M1516.9 962L1367.2 795L1288.2 988Z" fill="#cd7f15" stroke="#cd7f15"></path><path d="M1770.3 242L1664.6 246L1804.3 379Z" fill="#ea9425" stroke="#ea9425"></path><path d="M1631.6 420L1664.6 246L1516.9 231Z" fill="#f29929" stroke="#f29929"></path><path d="M459.1 978L559.8 1080L596.8 957Z" fill="#cd7f15" stroke="#cd7f15"></path><path d="M335.4 650L288.4 805L404.1 670Z" fill="#bf740a" stroke="#bf740a"></path><path d="M164.7 637L288.4 805L335.4 650Z" fill="#b16a00" stroke="#b16a00"></path><path d="M164.7 637L335.4 650L312.4 561Z" fill="#f99e2d" stroke="#f99e2d"></path><path d="M1194.5 1080L1345.2 1080L1288.2 988Z" fill="#b16a00" stroke="#b16a00"></path><path d="M147.7 247L188.7 399L303.4 273Z" fill="#bf740a" stroke="#bf740a"></path><path d="M1345.2 1080L1516.9 962L1288.2 988Z" fill="#c67910" stroke="#c67910"></path><path d="M471.1 0L306.4 0L443.1 110Z" fill="#b86f05" stroke="#b86f05"></path><path d="M267.4 174L147.7 247L303.4 273Z" fill="#ea9425" stroke="#ea9425"></path><path d="M1664.6 246L1657.6 113L1516.9 231Z" fill="#e38e21" stroke="#e38e21"></path><path d="M1758.3 706L1738.3 540L1651.6 668Z" fill="#e38e21" stroke="#e38e21"></path><path d="M1651.6 668L1738.3 540L1625.6 521Z" fill="#f29929" stroke="#f29929"></path><path d="M1774.3 0L1666.6 0L1657.6 113Z" fill="#db891d" stroke="#db891d"></path><path d="M1627.6 914L1646.6 839L1467.9 779Z" fill="#e38e21" stroke="#e38e21"></path><path d="M138.7 507L164.7 637L312.4 561Z" fill="#f29929" stroke="#f29929"></path><path d="M300.4 977L459.1 978L288.4 805Z" fill="#c67910" stroke="#c67910"></path><path d="M300.4 977L448.1 1080L459.1 978Z" fill="#b86f05" stroke="#b86f05"></path><path d="M459.1 978L448.1 1080L559.8 1080Z" fill="#b16a00" stroke="#b16a00"></path><path d="M188.7 399L138.7 507L312.4 561Z" fill="#ea9425" stroke="#ea9425"></path><path d="M0 362L138.7 507L188.7 399Z" fill="#db891d" stroke="#db891d"></path><path d="M116.7 98L147.7 247L267.4 174Z" fill="#f29929" stroke="#f29929"></path><path d="M1644.6 1080L1627.6 914L1516.9 962Z" fill="#e38e21" stroke="#e38e21"></path><path d="M1516.9 962L1627.6 914L1467.9 779Z" fill="#f99e2d" stroke="#f99e2d"></path><path d="M1646.6 839L1758.3 706L1651.6 668Z" fill="#bf740a" stroke="#bf740a"></path><path d="M1345.2 1080L1484.9 1080L1516.9 962Z" fill="#b16a00" stroke="#b16a00"></path><path d="M148.7 927L300.4 977L288.4 805Z" fill="#cd7f15" stroke="#cd7f15"></path><path d="M1657.6 113L1666.6 0L1515.9 0Z" fill="#f29929" stroke="#f29929"></path><path d="M1753.3 178L1657.6 113L1664.6 246Z" fill="#f99e2d" stroke="#f99e2d"></path><path d="M1804.3 379L1664.6 246L1631.6 420Z" fill="#f99e2d" stroke="#f99e2d"></path><path d="M1770.3 242L1753.3 178L1664.6 246Z" fill="#d48419" stroke="#d48419"></path><path d="M1742.3 835L1758.3 706L1646.6 839Z" fill="#cd7f15" stroke="#cd7f15"></path><path d="M1738.3 540L1804.3 379L1631.6 420Z" fill="#bf740a" stroke="#bf740a"></path><path d="M1920 512L1804.3 379L1738.3 540Z" fill="#f99e2d" stroke="#f99e2d"></path><path d="M0 781L156.7 821L164.7 637Z" fill="#b86f05" stroke="#b86f05"></path><path d="M164.7 637L156.7 821L288.4 805Z" fill="#b16a00" stroke="#b16a00"></path><path d="M1627.6 914L1742.3 835L1646.6 839Z" fill="#bf740a" stroke="#bf740a"></path><path d="M1920 662L1920 512L1738.3 540Z" fill="#e38e21" stroke="#e38e21"></path><path d="M1808.3 912L1742.3 835L1627.6 914Z" fill="#bf740a" stroke="#bf740a"></path><path d="M306.4 0L116.7 98L267.4 174Z" fill="#f29929" stroke="#f29929"></path><path d="M147.7 247L0 362L188.7 399Z" fill="#e38e21" stroke="#e38e21"></path><path d="M156.7 821L148.7 927L288.4 805Z" fill="#bf740a" stroke="#bf740a"></path><path d="M300.4 977L261.4 1080L448.1 1080Z" fill="#bf740a" stroke="#bf740a"></path><path d="M0 781L148.7 927L156.7 821Z" fill="#e38e21" stroke="#e38e21"></path><path d="M0 522L164.7 637L138.7 507Z" fill="#bf740a" stroke="#bf740a"></path><path d="M306.4 0L120.7 0L116.7 98Z" fill="#c67910" stroke="#c67910"></path><path d="M148.7 927L261.4 1080L300.4 977Z" fill="#f99e2d" stroke="#f99e2d"></path><path d="M1753.3 178L1774.3 0L1657.6 113Z" fill="#db891d" stroke="#db891d"></path><path d="M1920 170L1774.3 0L1753.3 178Z" fill="#b86f05" stroke="#b86f05"></path><path d="M1920 170L1753.3 178L1770.3 242Z" fill="#e38e21" stroke="#e38e21"></path><path d="M1484.9 1080L1644.6 1080L1516.9 962Z" fill="#cd7f15" stroke="#cd7f15"></path><path d="M0 274L147.7 247L0 171Z" fill="#cd7f15" stroke="#cd7f15"></path><path d="M0 274L0 362L147.7 247Z" fill="#f29929" stroke="#f29929"></path><path d="M0 362L0 522L138.7 507Z" fill="#b16a00" stroke="#b16a00"></path><path d="M0 171L147.7 247L116.7 98Z" fill="#f99e2d" stroke="#f99e2d"></path><path d="M0 522L0 659L164.7 637Z" fill="#b86f05" stroke="#b86f05"></path><path d="M1920 662L1758.3 706L1920 793Z" fill="#b16a00" stroke="#b16a00"></path><path d="M1920 662L1738.3 540L1758.3 706Z" fill="#bf740a" stroke="#bf740a"></path><path d="M1804.3 379L1920 230L1770.3 242Z" fill="#e38e21" stroke="#e38e21"></path><path d="M1920 512L1920 367L1804.3 379Z" fill="#b86f05" stroke="#b86f05"></path><path d="M1644.6 1080L1808.3 912L1627.6 914Z" fill="#db891d" stroke="#db891d"></path><path d="M0 0L0 171L116.7 98Z" fill="#db891d" stroke="#db891d"></path><path d="M1920 367L1920 230L1804.3 379Z" fill="#e38e21" stroke="#e38e21"></path><path d="M1920 793L1758.3 706L1742.3 835Z" fill="#e38e21" stroke="#e38e21"></path><path d="M0 659L0 781L164.7 637Z" fill="#cd7f15" stroke="#cd7f15"></path><path d="M148.7 927L131.7 1080L261.4 1080Z" fill="#bf740a" stroke="#bf740a"></path><path d="M1920 230L1920 170L1770.3 242Z" fill="#f29929" stroke="#f29929"></path><path d="M1808.3 912L1920 793L1742.3 835Z" fill="#db891d" stroke="#db891d"></path><path d="M0 978L131.7 1080L148.7 927Z" fill="#f29929" stroke="#f29929"></path><path d="M120.7 0L0 0L116.7 98Z" fill="#ea9425" stroke="#ea9425"></path><path d="M1644.6 1080L1795.3 1080L1808.3 912Z" fill="#b16a00" stroke="#b16a00"></path><path d="M1808.3 912L1920 975L1920 793Z" fill="#b86f05" stroke="#b86f05"></path><path d="M1920 170L1920 0L1774.3 0Z" fill="#db891d" stroke="#db891d"></path><path d="M0 781L0 978L148.7 927Z" fill="#e38e21" stroke="#e38e21"></path><path d="M1795.3 1080L1920 975L1808.3 912Z" fill="#bf740a" stroke="#bf740a"></path><path d="M0 978L0 1080L131.7 1080Z" fill="#db891d" stroke="#db891d"></path><path d="M1795.3 1080L1920 1080L1920 975Z" fill="#bf740a" stroke="#bf740a"></path></g></svg>